<svg width="21" height="20" viewBox="0 0 21 20" fill="none" xmlns="http://www.w3.org/2000/svg">
<mask id="mask0_232_2835" style="mask-type:alpha" maskUnits="userSpaceOnUse" x="0" y="0" width="21" height="20">
<rect x="0.5" width="20" height="20" fill="#D9D9D9"/>
</mask>
<g mask="url(#mask0_232_2835)">
<path d="M10.4999 15.4168C10.3749 15.4168 10.2741 15.3788 10.1974 15.3027C10.1213 15.226 10.0833 15.1252 10.0833 15.0002V10.4168H5.49992C5.37492 10.4168 5.27436 10.3752 5.19825 10.2918C5.12159 10.2085 5.08325 10.1113 5.08325 10.0002C5.08325 9.87516 5.12159 9.77433 5.19825 9.69766C5.27436 9.62155 5.37492 9.5835 5.49992 9.5835H10.0833V5.00016C10.0833 4.87516 10.1249 4.77433 10.2083 4.69766C10.2916 4.62155 10.3888 4.5835 10.4999 4.5835C10.6249 4.5835 10.7258 4.62155 10.8024 4.69766C10.8785 4.77433 10.9166 4.87516 10.9166 5.00016V9.5835H15.4999C15.6249 9.5835 15.7258 9.62516 15.8024 9.7085C15.8785 9.79183 15.9166 9.88905 15.9166 10.0002C15.9166 10.1252 15.8785 10.226 15.8024 10.3027C15.7258 10.3788 15.6249 10.4168 15.4999 10.4168H10.9166V15.0002C10.9166 15.1252 10.8749 15.226 10.7916 15.3027C10.7083 15.3788 10.611 15.4168 10.4999 15.4168Z" fill="#050507"/>
</g>
</svg>
