<svg width="20" height="20" viewBox="0 0 20 20" fill="none" xmlns="http://www.w3.org/2000/svg">
<mask id="mask0_1166_759" style="mask-type:alpha" maskUnits="userSpaceOnUse" x="0" y="0" width="20" height="20">
<rect width="20" height="20" fill="#D9D9D9"/>
</mask>
<g mask="url(#mask0_1166_759)">
<path d="M10 13.75C10.125 13.75 10.2258 13.7119 10.3025 13.6358C10.3786 13.5592 10.4167 13.4583 10.4167 13.3333V10.4167H13.3542C13.4653 10.4167 13.5592 10.375 13.6358 10.2917C13.7119 10.2083 13.75 10.1111 13.75 10C13.75 9.875 13.7119 9.77417 13.6358 9.6975C13.5592 9.62139 13.4583 9.58333 13.3333 9.58333H10.4167V6.64583C10.4167 6.53472 10.375 6.44083 10.2917 6.36417C10.2083 6.28806 10.1111 6.25 10 6.25C9.875 6.25 9.77417 6.28806 9.6975 6.36417C9.62139 6.44083 9.58333 6.54167 9.58333 6.66667V9.58333H6.64583C6.53472 9.58333 6.44111 9.625 6.365 9.70833C6.28833 9.79167 6.25 9.88889 6.25 10C6.25 10.125 6.28833 10.2258 6.365 10.3025C6.44111 10.3786 6.54167 10.4167 6.66667 10.4167H9.58333V13.3542C9.58333 13.4653 9.625 13.5592 9.70833 13.6358C9.79167 13.7119 9.88889 13.75 10 13.75ZM10 17.5C8.95833 17.5 7.97917 17.3056 7.0625 16.9167C6.14583 16.5278 5.35083 15.9967 4.6775 15.3233C4.00361 14.6494 3.47222 13.8542 3.08333 12.9375C2.69444 12.0208 2.5 11.0417 2.5 10C2.5 8.95833 2.69444 7.97917 3.08333 7.0625C3.47222 6.14583 4.00361 5.35056 4.6775 4.67667C5.35083 4.00333 6.14583 3.47222 7.0625 3.08333C7.97917 2.69444 8.95833 2.5 10 2.5C11.0417 2.5 12.0208 2.69444 12.9375 3.08333C13.8542 3.47222 14.6494 4.00333 15.3233 4.67667C15.9967 5.35056 16.5278 6.14583 16.9167 7.0625C17.3056 7.97917 17.5 8.95833 17.5 10C17.5 11.0417 17.3056 12.0208 16.9167 12.9375C16.5278 13.8542 15.9967 14.6494 15.3233 15.3233C14.6494 15.9967 13.8542 16.5278 12.9375 16.9167C12.0208 17.3056 11.0417 17.5 10 17.5ZM10 16.6667C11.8472 16.6667 13.4203 16.0175 14.7192 14.7192C16.0175 13.4203 16.6667 11.8472 16.6667 10C16.6667 8.15278 16.0175 6.57972 14.7192 5.28083C13.4203 3.9825 11.8472 3.33333 10 3.33333C8.15278 3.33333 6.58 3.9825 5.28167 5.28083C3.98278 6.57972 3.33333 8.15278 3.33333 10C3.33333 11.8472 3.98278 13.4203 5.28167 14.7192C6.58 16.0175 8.15278 16.6667 10 16.6667Z" fill="#3F4048"/>
</g>
</svg>
