<svg width="24" height="24" viewBox="0 0 24 24" fill="none" xmlns="http://www.w3.org/2000/svg">
<mask id="mask0_232_4371" style="mask-type:alpha" maskUnits="userSpaceOnUse" x="0" y="0" width="24" height="24">
<rect width="24" height="24" fill="#D9D9D9"/>
</mask>
<g mask="url(#mask0_232_4371)">
<path d="M18.8998 19.875C17.1665 19.875 15.4125 19.4333 13.6378 18.55C11.8625 17.6667 10.2665 16.5127 8.8498 15.088C7.43314 13.6627 6.27914 12.0667 5.3878 10.3C4.4958 8.53333 4.0498 6.78333 4.0498 5.05C4.0498 4.75 4.1498 4.5 4.3498 4.3C4.5498 4.1 4.7998 4 5.0998 4H7.5498C7.8498 4 8.0998 4.08333 8.2998 4.25C8.4998 4.41667 8.6248 4.64167 8.6748 4.925L9.1748 7.3C9.2248 7.56667 9.2208 7.804 9.1628 8.012C9.10414 8.22067 8.99147 8.4 8.8248 8.55L6.6498 10.6C7.53314 12.0833 8.53747 13.379 9.6628 14.487C10.7875 15.5957 12.0998 16.575 13.5998 17.425L15.7248 15.225C15.8915 15.0583 16.0791 14.9417 16.2878 14.875C16.4958 14.8083 16.7165 14.8 16.9498 14.85L19.0498 15.275C19.3165 15.3417 19.5331 15.475 19.6998 15.675C19.8665 15.875 19.9498 16.1167 19.9498 16.4V18.825C19.9498 19.125 19.8498 19.375 19.6498 19.575C19.4498 19.775 19.1998 19.875 18.8998 19.875ZM6.1498 9.65L8.0748 7.9C8.14147 7.83333 8.18314 7.75833 8.1998 7.675C8.21647 7.59167 8.21647 7.50833 8.1998 7.425L7.7498 5.3C7.71647 5.2 7.6708 5.125 7.6128 5.075C7.55414 5.025 7.4748 5 7.3748 5H5.3248C5.24147 5 5.1748 5.025 5.1248 5.075C5.0748 5.125 5.0498 5.19167 5.0498 5.275C5.06647 5.95833 5.1708 6.67067 5.3628 7.412C5.55414 8.154 5.81647 8.9 6.1498 9.65ZM18.6998 18.875C18.7665 18.875 18.8248 18.85 18.8748 18.8C18.9248 18.75 18.9498 18.6833 18.9498 18.6V16.6C18.9498 16.5 18.9248 16.4167 18.8748 16.35C18.8248 16.2833 18.7498 16.2333 18.6498 16.2L16.7998 15.825C16.7331 15.8083 16.6708 15.8083 16.6128 15.825C16.5541 15.8417 16.4915 15.8833 16.4248 15.95L14.5248 17.875C15.2081 18.2083 15.9331 18.4543 16.6998 18.613C17.4665 18.771 18.1331 18.8583 18.6998 18.875Z" fill="#050507"/>
</g>
</svg>
