<svg width="20" height="20" viewBox="0 0 20 20" fill="none" xmlns="http://www.w3.org/2000/svg">
<mask id="mask0_232_4343" style="mask-type:alpha" maskUnits="userSpaceOnUse" x="0" y="0" width="20" height="20">
<rect width="20" height="20" fill="#D9D9D9"/>
</mask>
<g mask="url(#mask0_232_4343)">
<path d="M8.79167 12.0833L6.70833 9.97917C6.625 9.89583 6.52778 9.8575 6.41667 9.86417C6.30556 9.87139 6.20833 9.91667 6.125 10C6.04167 10.0833 6 10.1806 6 10.2917C6 10.4028 6.04167 10.5 6.125 10.5833L8.33333 12.7917C8.45833 12.9167 8.61444 12.9792 8.80167 12.9792C8.98944 12.9792 9.14583 12.9167 9.27083 12.7917L13.8542 8.20833C13.9375 8.125 13.9758 8.02778 13.9692 7.91667C13.9619 7.80556 13.9167 7.70833 13.8333 7.625C13.75 7.54167 13.6528 7.5 13.5417 7.5C13.4306 7.5 13.3333 7.54167 13.25 7.625L8.79167 12.0833ZM10 17.5C8.95833 17.5 7.98278 17.3022 7.07333 16.9067C6.16333 16.5106 5.37167 15.9756 4.69833 15.3017C4.02444 14.6283 3.48944 13.8367 3.09333 12.9267C2.69778 12.0172 2.5 11.0417 2.5 10C2.5 8.95833 2.69778 7.9825 3.09333 7.0725C3.48944 6.16306 4.02444 5.37139 4.69833 4.6975C5.37167 4.02417 6.16333 3.48944 7.07333 3.09333C7.98278 2.69778 8.95833 2.5 10 2.5C11.0417 2.5 12.0175 2.69778 12.9275 3.09333C13.8369 3.48944 14.6286 4.02417 15.3025 4.6975C15.9758 5.37139 16.5106 6.16306 16.9067 7.0725C17.3022 7.9825 17.5 8.95833 17.5 10C17.5 11.0417 17.3022 12.0172 16.9067 12.9267C16.5106 13.8367 15.9758 14.6283 15.3025 15.3017C14.6286 15.9756 13.8369 16.5106 12.9275 16.9067C12.0175 17.3022 11.0417 17.5 10 17.5ZM10 16.6667C11.8472 16.6667 13.4203 16.0175 14.7192 14.7192C16.0175 13.4203 16.6667 11.8472 16.6667 10C16.6667 8.15278 16.0175 6.57972 14.7192 5.28083C13.4203 3.9825 11.8472 3.33333 10 3.33333C8.15278 3.33333 6.58 3.9825 5.28167 5.28083C3.98278 6.57972 3.33333 8.15278 3.33333 10C3.33333 11.8472 3.98278 13.4203 5.28167 14.7192C6.58 16.0175 8.15278 16.6667 10 16.6667Z" fill="#D71B5B"/>
</g>
</svg>
