<svg width="24" height="24" viewBox="0 0 24 24" fill="none" xmlns="http://www.w3.org/2000/svg">
<mask id="mask0_1350_1589" style="mask-type:alpha" maskUnits="userSpaceOnUse" x="0" y="0" width="24" height="24">
<rect width="24" height="24" fill="#D9D9D9"/>
</mask>
<g mask="url(#mask0_1350_1589)">
<path d="M12 11.8492L6.75 16.8835C6.66667 16.9793 6.554 17.0314 6.412 17.0398C6.27067 17.0474 6.15 16.9953 6.05 16.8835C5.93333 16.7876 5.875 16.6757 5.875 16.5478C5.875 16.42 5.93333 16.3081 6.05 16.2122L11.3 11.178L6.05 6.14373C5.95 6.06382 5.896 5.95578 5.888 5.81962C5.87933 5.68409 5.93333 5.56839 6.05 5.4725C6.15 5.36062 6.26667 5.30469 6.4 5.30469C6.53333 5.30469 6.65 5.36062 6.75 5.4725L12 10.5067L17.25 5.4725C17.3333 5.37661 17.4457 5.3245 17.587 5.31619C17.729 5.30852 17.85 5.36062 17.95 5.4725C18.0667 5.56839 18.125 5.68026 18.125 5.80811C18.125 5.93597 18.0667 6.04784 17.95 6.14373L12.7 11.178L17.95 16.2122C18.05 16.2921 18.1043 16.3998 18.113 16.5354C18.121 16.6715 18.0667 16.7876 17.95 16.8835C17.85 16.9953 17.7333 17.0513 17.6 17.0513C17.4667 17.0513 17.35 16.9953 17.25 16.8835L12 11.8492Z" fill="#666666"/>
</g>
</svg>
