<svg width="24" height="24" viewBox="0 0 24 24" fill="none" xmlns="http://www.w3.org/2000/svg">
<mask id="mask0_811_632" style="mask-type:alpha" maskUnits="userSpaceOnUse" x="0" y="0" width="24" height="24">
<rect width="24" height="24" fill="#D9D9D9"/>
</mask>
<g mask="url(#mask0_811_632)">
<path d="M7.625 20.0001C7.15833 20.0001 6.771 19.8461 6.463 19.5381C6.15433 19.2294 6 18.8418 6 18.3751V6.0001H5.5C5.35 6.0001 5.22933 5.9541 5.138 5.8621C5.046 5.77076 5 5.6501 5 5.5001C5 5.3501 5.046 5.2291 5.138 5.1371C5.22933 5.04576 5.35 5.0001 5.5 5.0001H9C9 4.78343 9.07933 4.6001 9.238 4.4501C9.396 4.3001 9.58333 4.2251 9.8 4.2251H14.2C14.4167 4.2251 14.604 4.3001 14.762 4.4501C14.9207 4.6001 15 4.78343 15 5.0001H18.5C18.65 5.0001 18.771 5.04576 18.863 5.1371C18.9543 5.2291 19 5.3501 19 5.5001C19 5.6501 18.9543 5.77076 18.863 5.8621C18.771 5.9541 18.65 6.0001 18.5 6.0001H18V18.3751C18 18.8418 17.846 19.2294 17.538 19.5381C17.2293 19.8461 16.8417 20.0001 16.375 20.0001H7.625ZM7 6.0001V18.3751C7 18.5584 7.05833 18.7084 7.175 18.8251C7.29167 18.9418 7.44167 19.0001 7.625 19.0001H16.375C16.5583 19.0001 16.7083 18.9418 16.825 18.8251C16.9417 18.7084 17 18.5584 17 18.3751V6.0001H7ZM9.8 16.5001C9.8 16.6501 9.85 16.7711 9.95 16.8631C10.05 16.9544 10.1667 17.0001 10.3 17.0001C10.45 17.0001 10.571 16.9544 10.663 16.8631C10.7543 16.7711 10.8 16.6501 10.8 16.5001V8.5001C10.8 8.3501 10.7543 8.2291 10.663 8.1371C10.571 8.04576 10.45 8.0001 10.3 8.0001C10.1667 8.0001 10.05 8.04576 9.95 8.1371C9.85 8.2291 9.8 8.3501 9.8 8.5001V16.5001ZM13.2 16.5001C13.2 16.6501 13.246 16.7711 13.338 16.8631C13.4293 16.9544 13.55 17.0001 13.7 17.0001C13.8333 17.0001 13.95 16.9544 14.05 16.8631C14.15 16.7711 14.2 16.6501 14.2 16.5001V8.5001C14.2 8.3501 14.15 8.2291 14.05 8.1371C13.95 8.04576 13.8333 8.0001 13.7 8.0001C13.55 8.0001 13.4293 8.04576 13.338 8.1371C13.246 8.2291 13.2 8.3501 13.2 8.5001V16.5001ZM7 6.0001V18.3751C7 18.5584 7.05833 18.7084 7.175 18.8251C7.29167 18.9418 7.44167 19.0001 7.625 19.0001H7V6.0001Z" fill="#D71B5B"/>
</g>
</svg>
