<svg width="20" height="20" viewBox="0 0 20 20" fill="none" xmlns="http://www.w3.org/2000/svg">
<mask id="mask0_232_3488" style="mask-type:alpha" maskUnits="userSpaceOnUse" x="0" y="0" width="20" height="20">
<rect width="20" height="20" fill="#D9D9D9"/>
</mask>
<g mask="url(#mask0_232_3488)">
<path d="M4.41683 15.8333H5.31266L13.5627 7.58325L12.6668 6.68742L4.41683 14.9374V15.8333ZM15.3543 6.97909L13.271 4.91659L14.2918 3.89575C14.4446 3.72909 14.6391 3.64575 14.8752 3.64575C15.1113 3.64575 15.3127 3.72909 15.4793 3.89575L16.3543 4.79159C16.521 4.94436 16.6043 5.13881 16.6043 5.37492C16.6043 5.61103 16.5279 5.80547 16.3752 5.95825L15.3543 6.97909ZM4.271 16.6666C4.07655 16.6666 3.91322 16.6041 3.781 16.4791C3.64933 16.3541 3.5835 16.1944 3.5835 15.9999V14.8541C3.5835 14.7708 3.60072 14.691 3.63516 14.6149C3.67016 14.5383 3.72238 14.4583 3.79183 14.3749L12.6668 5.49992L14.7502 7.58325L5.87516 16.4583C5.80572 16.5416 5.73294 16.5971 5.65683 16.6249C5.58016 16.6527 5.49322 16.6666 5.396 16.6666H4.271Z" fill="#D71B5B"/>
</g>
</svg>
