<svg width="64" height="64" viewBox="0 0 64 64" fill="none" xmlns="http://www.w3.org/2000/svg">
<path d="M32.127 62C17.1538 62 1 52.6082 1 32C1 11.3918 17.1538 2 32.127 2C40.4454 2 48.1199 4.73703 53.8086 9.72809C59.9803 15.2021 63.254 22.9302 63.254 32C63.254 41.0698 59.9803 48.7442 53.8086 54.2182C48.1199 59.2093 40.3918 62 32.127 62Z" fill="url(#paint0_radial_1350_1779)"/>
<path d="M57.8283 14.1665C60.6887 18.7819 62.1807 24.2774 62.1807 30.3901C62.1807 39.4599 58.907 47.1343 52.7352 52.6084C47.0465 57.5994 39.3184 60.3901 31.0537 60.3901C21.3614 60.3901 11.1968 56.4456 5.19678 48.0788C10.9714 57.5565 21.8336 62.0001 32.127 62.0001C40.3918 62.0001 48.1199 59.2094 53.8086 54.2184C59.9803 48.7443 63.254 41.0699 63.254 32.0001C63.254 25.1629 61.3918 19.0878 57.8283 14.1665Z" fill="#EB8F00"/>
<path d="M32.5562 42.9482C30.6349 42.9482 28.7297 42.6262 26.9211 41.9822C24.6939 41.2147 22.2735 42.4008 21.5061 44.6226C21.0714 45.8784 21.2485 47.263 21.9837 48.3686C24.2914 51.9106 27.9408 53.8426 32.5562 53.8426C37.1716 53.8426 40.8209 51.9106 43.1286 48.3686C44.4327 46.4097 43.8961 43.7639 41.9372 42.4598C40.8317 41.7246 39.4471 41.5475 38.1912 41.9822C36.3827 42.6262 34.4775 42.9482 32.5562 42.9482Z" fill="#422B0D"/>
<path opacity="0.8" d="M16.3488 46.1145C21.5357 46.1145 25.7406 42.1499 25.7406 37.2594C25.7406 32.3689 21.5357 28.4043 16.3488 28.4043C11.1619 28.4043 6.95703 32.3689 6.95703 37.2594C6.95703 42.1499 11.1619 46.1145 16.3488 46.1145Z" fill="url(#paint1_radial_1350_1779)"/>
<path opacity="0.8" d="M48.7638 46.1145C53.9508 46.1145 58.1556 42.1499 58.1556 37.2594C58.1556 32.3689 53.9508 28.4043 48.7638 28.4043C43.5769 28.4043 39.3721 32.3689 39.3721 37.2594C39.3721 42.1499 43.5769 46.1145 48.7638 46.1145Z" fill="url(#paint2_radial_1350_1779)"/>
<path d="M55.7351 16.6887C51.329 15.449 48.0929 19.0501 48.0929 19.0501C48.0929 19.0501 47.7172 14.966 43.9498 13.6833C39.431 12.1324 34.66 14.601 34.3756 21.0036C34.0536 28.2969 43.7029 37.8712 43.7029 37.8712C43.7029 37.8712 55.6815 34.6511 59.6045 27.8247C62.7977 22.2701 59.0679 17.6225 55.7351 16.6887Z" fill="#F44336"/>
<path d="M55.7354 16.689C55.1933 16.5441 54.6352 16.4797 54.0771 16.4904C55.6549 17.5477 56.9053 19.0235 57.6835 20.7516C58.4402 22.5709 58.6388 24.9215 57.2005 27.7283C54.0824 33.8303 44.4814 37.6085 43.7837 37.8714C44.6585 37.6246 55.8535 34.4045 59.6263 27.841C62.798 22.2704 59.0681 17.6228 55.7354 16.689Z" fill="#C62828"/>
<path d="M48.0879 19.7101C48.0557 19.1519 47.9698 18.5938 47.841 18.0464C47.5297 16.4686 46.553 15.1001 45.1576 14.2897C44.2024 13.7315 43.1451 13.3773 42.0503 13.2432C42.0503 13.2432 43.6603 13.7315 44.8088 15.9587C45.3938 17.1287 45.7426 18.406 45.8285 19.7101C45.8231 20.1877 45.909 20.6546 46.0807 21.1001C46.2739 21.5455 46.7462 21.8085 47.2292 21.7333C47.9644 21.5455 48.1254 20.6278 48.0879 19.7101Z" fill="#C62828"/>
<path d="M37.6545 17.1501C38.658 15.9051 40.3056 14.719 41.8834 15.8138C42.7207 16.3988 42.7314 18.0571 41.7063 18.8031C39.9783 20.0696 39.8978 20.9015 39.7046 21.5992C39.4684 22.431 39.3182 23.4238 38.5614 23.8424C37.8047 24.2611 37.1393 23.8424 36.7421 22.6457C36.0659 20.778 36.4094 18.6958 37.6545 17.1501Z" fill="#FF847A"/>
<path d="M19.8482 13.5762C15.4958 14.9877 14.7981 19.7802 14.7981 19.7802C14.7981 19.7802 12.222 16.5601 8.358 17.6013C3.74798 18.8141 1.14512 23.5154 4.43493 28.9948C8.2453 35.2739 21.5762 37.8768 21.5762 37.8768C21.5762 37.8768 29.7605 28.5601 29.2453 20.7032C28.8213 14.3061 23.138 12.5082 19.8482 13.5762Z" fill="#F44336"/>
<path d="M19.8479 13.5762C19.3166 13.748 18.8067 13.9949 18.3398 14.3061C20.2397 14.3115 22.0966 14.8482 23.7066 15.8571C25.3488 16.9305 26.8139 18.7981 27.1788 21.9376C27.9678 28.748 22.0644 37.2113 21.6082 37.8285C22.2039 37.1415 29.7334 28.2542 29.2397 20.6979C28.8211 14.3061 23.1377 12.5083 19.8479 13.5762Z" fill="#C62828"/>
<path d="M15.1683 20.3435C14.8356 19.8873 14.4599 19.4687 14.0413 19.093C12.9143 17.9445 11.3526 17.3327 9.74791 17.4186C8.64773 17.483 7.56902 17.7674 6.58154 18.2666C6.58154 18.2666 8.19156 17.7782 10.3812 19.0018C11.5243 19.6619 12.5171 20.5474 13.3114 21.5993C13.569 22.0018 13.9018 22.3453 14.2935 22.619C14.7014 22.8819 15.2381 22.8336 15.5976 22.5063C16.0753 21.9267 15.705 21.0787 15.1683 20.3435Z" fill="#C62828"/>
<path d="M5.07859 24.0038C5.10006 23.553 5.18056 23.1075 5.31473 22.6782C5.53476 21.7766 6.1734 21.0306 7.02671 20.6711C7.84782 20.4134 8.98557 20.5959 9.42564 21.417C9.81741 22.1469 9.53298 23.027 9.31831 23.8321C9.1251 24.7551 9.01777 25.6997 8.9963 26.6442C9.00167 27.417 8.3845 28.0449 7.61169 28.0557C6.88181 28.0557 6.31294 27.4224 5.90507 26.816C5.3362 25.9895 5.04639 25.0074 5.07859 24.0038Z" fill="#FF847A"/>
<defs>
<radialGradient id="paint0_radial_1350_1779" cx="0" cy="0" r="1" gradientUnits="userSpaceOnUse" gradientTransform="translate(32.127 32) scale(30.5687 30.5687)">
<stop offset="0.5" stop-color="#FDE030"/>
<stop offset="0.92" stop-color="#F7C02B"/>
<stop offset="1" stop-color="#F4A223"/>
</radialGradient>
<radialGradient id="paint1_radial_1350_1779" cx="0" cy="0" r="1" gradientUnits="userSpaceOnUse" gradientTransform="translate(16.3488 33.1863) scale(10.2354 9.19093)">
<stop stop-color="#ED7770"/>
<stop offset="0.9" stop-color="#ED7770" stop-opacity="0"/>
</radialGradient>
<radialGradient id="paint2_radial_1350_1779" cx="0" cy="0" r="1" gradientUnits="userSpaceOnUse" gradientTransform="translate(64.0697 1354.73) scale(10.4437 10.4436)">
<stop stop-color="#ED7770"/>
<stop offset="0.9" stop-color="#ED7770" stop-opacity="0"/>
</radialGradient>
</defs>
</svg>
