<svg width="64" height="64" viewBox="0 0 64 64" fill="none" xmlns="http://www.w3.org/2000/svg">
<path d="M32.127 62C17.1538 62 1 52.6082 1 32C1 11.3918 17.1538 2 32.127 2C40.4454 2 48.1199 4.73703 53.8086 9.72809C59.9803 15.2021 63.254 22.9302 63.254 32C63.254 41.0698 59.9803 48.7442 53.8086 54.2182C48.1199 59.2093 40.3918 62 32.127 62Z" fill="url(#paint0_radial_1350_1662)"/>
<path d="M21.6078 20.2146C19.3592 20.2146 17.3145 22.1144 17.3145 25.2701C17.3145 28.4257 19.3592 30.3201 21.6078 30.3201C23.8619 30.3201 25.9012 28.4203 25.9012 25.2701C25.9012 22.1198 23.8833 20.2146 21.6078 20.2146Z" fill="#422B0D"/>
<path d="M21.4204 22.3237C20.6583 21.9588 19.7406 22.2808 19.3703 23.0429C19.0858 23.6386 19.2146 24.3524 19.6923 24.8139C20.4544 25.1788 21.3721 24.8568 21.7424 24.0948C22.0268 23.4991 21.898 22.7853 21.4204 22.3237Z" fill="#896024"/>
<path d="M42.2162 20.2146C39.9676 20.2146 37.9229 22.1144 37.9229 25.2701C37.9229 28.4257 39.9676 30.3201 42.2162 30.3201C44.4649 30.3201 46.5096 28.4203 46.5096 25.2701C46.5096 22.1198 44.4649 20.2146 42.2162 20.2146Z" fill="#422B0D"/>
<path d="M42.0014 22.3237C41.2393 21.9588 40.3216 22.2808 39.9513 23.0429C39.6669 23.6386 39.7957 24.3524 40.2733 24.8139C41.0354 25.1788 41.9531 24.8568 42.3234 24.0948C42.6079 23.4991 42.4791 22.7853 42.0014 22.3237Z" fill="#896024"/>
<path d="M31.8049 47.4079C26.9373 47.4455 22.2897 45.4008 19.0321 41.7836C18.7852 41.4992 18.7262 41.0967 18.8818 40.7532C19.0375 40.4044 19.381 40.179 19.762 40.1736C19.9337 40.1736 20.1055 40.2219 20.2557 40.3078C22.8425 41.7943 27.1681 43.6405 31.8049 43.6405H31.8801C36.5115 43.6405 40.8425 41.7943 43.4239 40.3078C43.5742 40.2219 43.7459 40.1736 43.9176 40.1736C44.2987 40.179 44.6421 40.4044 44.7978 40.7532C44.9588 41.0967 44.8997 41.4992 44.6475 41.7836C41.3899 45.4008 36.7316 47.4509 31.864 47.4079" fill="#422B0D"/>
<path d="M57.8287 14.1663C60.6892 18.7816 62.1812 24.2772 62.1812 30.3899C62.1812 39.4596 58.9075 47.1341 52.7357 52.6081C47.047 57.5992 39.3189 60.3899 31.0542 60.3899C21.3618 60.3899 11.1973 56.4453 5.19727 48.0786C10.9719 57.5562 21.8341 61.9999 32.1275 61.9999C40.3923 61.9999 48.1203 59.2092 53.8091 54.2181C59.9808 48.7441 63.2545 41.0697 63.2545 31.9999C63.2545 25.1627 61.3923 19.0875 57.8287 14.1663Z" fill="#EB8F00"/>
<defs>
<radialGradient id="paint0_radial_1350_1662" cx="0" cy="0" r="1" gradientUnits="userSpaceOnUse" gradientTransform="translate(32.127 32) scale(30.5687 30.5687)">
<stop offset="0.5" stop-color="#FDE030"/>
<stop offset="0.92" stop-color="#F7C02B"/>
<stop offset="1" stop-color="#F4A223"/>
</radialGradient>
</defs>
</svg>
