<svg width="64" height="64" viewBox="0 0 64 64" fill="none" xmlns="http://www.w3.org/2000/svg">
<path d="M32.127 62C17.1538 62 1 52.6082 1 32C1 11.3918 17.1538 2 32.127 2C40.4454 2 48.1199 4.73703 53.8086 9.72809C59.9803 15.2021 63.254 22.9302 63.254 32C63.254 41.0698 59.9803 48.7442 53.8086 54.2182C48.1199 59.2093 40.3918 62 32.127 62Z" fill="url(#paint0_radial_1350_1741)"/>
<path d="M57.8283 14.1665C60.6887 18.7819 62.1807 24.2774 62.1807 30.3901C62.1807 39.4599 58.907 47.1343 52.7352 52.6084C47.0465 57.5994 39.3184 60.3901 31.0537 60.3901C21.3614 60.3901 11.1968 56.4456 5.19678 48.0788C10.9714 57.5565 21.8336 62.0001 32.127 62.0001C40.3918 62.0001 48.1199 59.2094 53.8086 54.2184C59.9803 48.7443 63.254 41.0699 63.254 32.0001C63.254 25.1629 61.3918 19.0878 57.8283 14.1665Z" fill="#EB8F00"/>
<path d="M45.7586 45.4706H18.925C17.739 45.4706 16.7783 44.51 16.7783 43.3239C16.7783 42.1379 17.739 41.1772 18.925 41.1772H45.7586C46.9447 41.1772 47.9053 42.1379 47.9053 43.3239C47.9053 44.51 46.9447 45.4706 45.7586 45.4706Z" fill="#422B0D"/>
<path d="M21.9677 22.8979C19.719 22.8979 17.6743 24.7978 17.6743 27.9534C17.6743 31.109 19.719 33.0035 21.9677 33.0035C24.2164 33.0035 26.2611 31.1037 26.2611 27.9534C26.2611 24.8031 24.2164 22.8979 21.9677 22.8979Z" fill="#422B0D"/>
<path d="M21.7587 25.0073C20.9967 24.6424 20.079 24.9644 19.7087 25.7265C19.4242 26.3222 19.553 27.036 20.0307 27.4975C20.7927 27.8624 21.7104 27.5404 22.0807 26.7784C22.3652 26.1826 22.2364 25.4689 21.7587 25.0073Z" fill="#896024"/>
<path d="M42.5385 22.8979C40.2898 22.8979 38.2451 24.7978 38.2451 27.9534C38.2451 31.109 40.2898 33.0035 42.5385 33.0035C44.7872 33.0035 46.8319 31.1037 46.8319 27.9534C46.8319 24.8031 44.7979 22.8979 42.5385 22.8979Z" fill="#422B0D"/>
<path d="M42.3398 25.0073C41.5777 24.6424 40.66 24.9644 40.2897 25.7265C40.0053 26.3222 40.1341 27.036 40.6117 27.4975C41.3738 27.8624 42.2915 27.5404 42.6618 26.7784C42.9462 26.1826 42.8174 25.4689 42.3398 25.0073Z" fill="#896024"/>
<defs>
<radialGradient id="paint0_radial_1350_1741" cx="0" cy="0" r="1" gradientUnits="userSpaceOnUse" gradientTransform="translate(32.127 31.9999) scale(30.5687 30.5687)">
<stop offset="0.5" stop-color="#FDE030"/>
<stop offset="0.92" stop-color="#F7C02B"/>
<stop offset="1" stop-color="#F4A223"/>
</radialGradient>
</defs>
</svg>
