<svg width="64" height="64" viewBox="0 0 64 64" fill="none" xmlns="http://www.w3.org/2000/svg">
<path d="M32.127 62C17.1538 62 1 52.6082 1 32C1 11.3918 17.1538 2 32.127 2C40.4454 2 48.1199 4.73703 53.8086 9.72809C59.9803 15.2021 63.254 22.9302 63.254 32C63.254 41.0698 59.9803 48.7442 53.8086 54.2182C48.1199 59.2093 40.3918 62 32.127 62Z" fill="url(#paint0_radial_1350_1722)"/>
<path d="M21.6083 20.2148C19.3597 20.2148 17.3149 22.1147 17.3149 25.2703C17.3149 28.4259 19.3597 30.3204 21.6083 30.3204C23.8623 30.3204 25.9017 28.4206 25.9017 25.2703C25.9017 22.12 23.8838 20.2148 21.6083 20.2148Z" fill="#422B0D"/>
<path d="M21.4204 22.3237C20.6583 21.9588 19.7406 22.2808 19.3703 23.0429C19.0858 23.6386 19.2146 24.3524 19.6923 24.8139C20.4544 25.1788 21.3721 24.8568 21.7424 24.0948C22.0268 23.4991 21.898 22.7853 21.4204 22.3237Z" fill="#896024"/>
<path d="M42.2162 20.2148C39.9676 20.2148 37.9229 22.1147 37.9229 25.2703C37.9229 28.4259 39.9676 30.3204 42.2162 30.3204C44.4649 30.3204 46.5096 28.4206 46.5096 25.2703C46.5096 22.12 44.4649 20.2148 42.2162 20.2148Z" fill="#422B0D"/>
<path d="M42.0019 22.3237C41.2398 21.9588 40.3221 22.2808 39.9518 23.0429C39.6674 23.6386 39.7962 24.3524 40.2738 24.8139C41.0359 25.1788 41.9536 24.8568 42.3239 24.0948C42.6083 23.4991 42.4795 22.7853 42.0019 22.3237Z" fill="#896024"/>
<path d="M57.8283 14.1665C60.6887 18.7819 62.1807 24.2774 62.1807 30.3901C62.1807 39.4599 58.907 47.1343 52.7352 52.6084C47.0465 57.5994 39.3184 60.3901 31.0537 60.3901C21.3614 60.3901 11.1968 56.4456 5.19678 48.0788C10.9714 57.5565 21.8336 62.0001 32.127 62.0001C40.3918 62.0001 48.1199 59.2094 53.8086 54.2184C59.9803 48.7443 63.254 41.0699 63.254 32.0001C63.254 25.1629 61.3918 19.0878 57.8283 14.1665Z" fill="#EB8F00"/>
<defs>
<radialGradient id="paint0_radial_1350_1722" cx="0" cy="0" r="1" gradientUnits="userSpaceOnUse" gradientTransform="translate(32.127 32) scale(30.5687 30.5687)">
<stop offset="0.5" stop-color="#FDE030"/>
<stop offset="0.92" stop-color="#F7C02B"/>
<stop offset="1" stop-color="#F4A223"/>
</radialGradient>
</defs>
</svg>
