<svg width="64" height="64" viewBox="0 0 64 64" fill="none" xmlns="http://www.w3.org/2000/svg">
<path d="M32.127 62C17.1538 62 1 52.6082 1 32C1 11.3918 17.1538 2 32.127 2C40.4454 2 48.1199 4.73703 53.8086 9.72809C59.9803 15.2021 63.254 22.9302 63.254 32C63.254 41.0698 59.9803 48.7442 53.8086 54.2182C48.1199 59.2093 40.3918 62 32.127 62Z" fill="url(#paint0_radial_1350_1702)"/>
<path d="M57.8283 14.1665C60.6887 18.7819 62.1807 24.2774 62.1807 30.3901C62.1807 39.4599 58.907 47.1343 52.7352 52.6084C47.0465 57.5994 39.3184 60.3901 31.0537 60.3901C21.3614 60.3901 11.1968 56.4456 5.19678 48.0788C10.9714 57.5565 21.8336 62.0001 32.127 62.0001C40.3918 62.0001 48.1199 59.2094 53.8086 54.2184C59.9803 48.7443 63.254 41.0699 63.254 32.0001C63.254 25.1629 61.3918 19.0878 57.8283 14.1665Z" fill="#EB8F00"/>
<path d="M43.043 53.596C42.8605 53.5262 42.6942 53.4135 42.5654 53.2632C37.3435 47.8375 28.7085 47.6711 23.2827 52.8929C23.1593 53.0164 23.0305 53.1398 22.9124 53.2632C22.7836 53.4135 22.6172 53.5262 22.4348 53.596C22.0323 53.7462 21.5761 53.6604 21.2541 53.3759C20.9375 53.0969 20.8301 52.6514 20.9911 52.2597C22.5904 48.1541 27.3453 44.9341 32.7389 44.9341C38.1324 44.9341 42.8874 48.1541 44.4866 52.2543C44.6476 52.6461 44.5403 53.0915 44.2237 53.3706C43.9017 53.655 43.4455 53.7409 43.043 53.596Z" fill="#422B0D"/>
<path d="M29.197 35.1772C27.9948 33.6638 23.0414 30.755 21.2542 29.9071C20.5888 29.6012 19.8965 29.3543 19.188 29.1718C19.0592 29.1343 18.9197 29.1182 18.7855 29.1182C18.0718 29.1343 17.46 29.6441 17.3151 30.3471C17.1487 31.077 17.5244 31.8284 18.2113 32.1289C19.0539 32.5421 20.5244 33.3257 22.0485 34.1897C20.7766 34.9464 19.9984 36.3203 19.9984 37.8015V38.5851C19.9984 40.8069 21.8016 42.6101 24.0235 42.6101C26.2453 42.6101 28.0485 40.8069 28.0485 38.5851V37.8015C28.0485 37.7693 28.0485 37.7425 28.0485 37.7103C28.6227 37.6727 29.138 37.3293 29.3902 36.8141C29.6532 36.2774 29.578 35.6387 29.197 35.1772Z" fill="#422B0D"/>
<path d="M48.1843 30.3472C48.034 29.6387 47.4115 29.1343 46.687 29.1289C46.5528 29.1289 46.4133 29.145 46.2845 29.1826C45.5761 29.3597 44.8838 29.6065 44.2183 29.9071C42.4312 30.7443 37.4777 33.6638 36.2755 35.1665C35.8945 35.6334 35.8301 36.2774 36.0984 36.8141C36.356 37.3346 36.8659 37.6727 37.4455 37.7103V37.8015V38.5851C37.4455 40.8069 39.2487 42.6101 41.4705 42.6101C43.6923 42.6101 45.4956 40.8069 45.4956 38.5851V37.8015C45.4956 36.3257 44.7174 34.9572 43.4508 34.2005C44.975 33.3364 46.4455 32.5529 47.2881 32.1396C47.9804 31.8391 48.3614 31.0824 48.1843 30.3472Z" fill="#422B0D"/>
<path d="M23.8193 34.9785C23.0572 34.6136 22.1395 34.9356 21.7692 35.6977C21.4848 36.2934 21.6136 37.0071 22.0912 37.4687C22.8533 37.8336 23.771 37.5116 24.1413 36.7495C24.4257 36.1538 24.2969 35.4401 23.8193 34.9785Z" fill="#896024"/>
<path d="M41.2666 34.9785C40.5045 34.6136 39.5868 34.9356 39.2165 35.6977C38.932 36.2934 39.0608 37.0071 39.5385 37.4687C40.3005 37.8336 41.2183 37.5116 41.5886 36.7495C41.873 36.1538 41.7442 35.4401 41.2666 34.9785Z" fill="#896024"/>
<defs>
<radialGradient id="paint0_radial_1350_1702" cx="0" cy="0" r="1" gradientUnits="userSpaceOnUse" gradientTransform="translate(32.127 31.9999) scale(30.5687 30.5687)">
<stop offset="0.5" stop-color="#FDE030"/>
<stop offset="0.92" stop-color="#F7C02B"/>
<stop offset="1" stop-color="#F4A223"/>
</radialGradient>
</defs>
</svg>
