<svg width="121" height="120" viewBox="0 0 121 120" fill="none" xmlns="http://www.w3.org/2000/svg">
<mask id="mask0_863_787" style="mask-type:alpha" maskUnits="userSpaceOnUse" x="0" y="0" width="121" height="120">
<rect x="0.5" width="120" height="120" fill="url(#paint0_linear_863_787)"/>
</mask>
<g mask="url(#mask0_863_787)">
<path d="M60.5 65.75C61.25 65.75 61.855 65.52 62.315 65.06C62.7717 64.6033 63 64 63 63.25V38.125C63 37.4583 62.75 36.895 62.25 36.435C61.75 35.9783 61.1667 35.75 60.5 35.75C59.75 35.75 59.145 36 58.685 36.5C58.2283 37 58 37.5833 58 38.25V63.375C58 64.0417 58.25 64.6033 58.75 65.06C59.25 65.52 59.8333 65.75 60.5 65.75ZM60.5 82.25C61.3333 82.25 62.0633 81.9583 62.69 81.375C63.3133 80.7917 63.625 80.0833 63.625 79.25C63.625 78.3333 63.3133 77.5833 62.69 77C62.0633 76.4167 61.3333 76.125 60.5 76.125C59.6667 76.125 58.9367 76.4167 58.31 77C57.6867 77.5833 57.375 78.3333 57.375 79.25C57.375 80.0833 57.6867 80.7917 58.31 81.375C58.9367 81.9583 59.6667 82.25 60.5 82.25ZM60.5 105C54.25 105 48.375 103.833 42.875 101.5C37.375 99.1667 32.605 95.98 28.565 91.94C24.5217 87.8967 21.3333 83.125 19 77.625C16.6667 72.125 15.5 66.25 15.5 60C15.5 53.75 16.6667 47.875 19 42.375C21.3333 36.875 24.5217 32.1033 28.565 28.06C32.605 24.02 37.375 20.8333 42.875 18.5C48.375 16.1667 54.25 15 60.5 15C66.75 15 72.625 16.1667 78.125 18.5C83.625 20.8333 88.3967 24.02 92.44 28.06C96.48 32.1033 99.6667 36.875 102 42.375C104.333 47.875 105.5 53.75 105.5 60C105.5 66.25 104.333 72.125 102 77.625C99.6667 83.125 96.48 87.8967 92.44 91.94C88.3967 95.98 83.625 99.1667 78.125 101.5C72.625 103.833 66.75 105 60.5 105ZM60.5 100C71.5833 100 81.0217 96.105 88.815 88.315C96.605 80.5217 100.5 71.0833 100.5 60C100.5 48.9167 96.605 39.4783 88.815 31.685C81.0217 23.895 71.5833 20 60.5 20C49.4167 20 39.98 23.895 32.19 31.685C24.3967 39.4783 20.5 48.9167 20.5 60C20.5 71.0833 24.3967 80.5217 32.19 88.315C39.98 96.105 49.4167 100 60.5 100Z" fill="url(#paint1_linear_863_787)"/>
</g>
<defs>
<linearGradient id="paint0_linear_863_787" x1="-11.3147" y1="24.556" x2="120.5" y2="59.7683" gradientUnits="userSpaceOnUse">
<stop stop-color="#FBB03C"/>
<stop offset="1" stop-color="#D71B5B"/>
</linearGradient>
<linearGradient id="paint1_linear_863_787" x1="6.639" y1="33.417" x2="105.5" y2="59.8263" gradientUnits="userSpaceOnUse">
<stop stop-color="#FBB03C"/>
<stop offset="1" stop-color="#D71B5B"/>
</linearGradient>
</defs>
</svg>
