<svg width="20" height="20" viewBox="0 0 20 20" fill="none" xmlns="http://www.w3.org/2000/svg">
<mask id="mask0_89_2014" style="mask-type:alpha" maskUnits="userSpaceOnUse" x="0" y="0" width="20" height="20">
<rect width="20" height="20" fill="#D9D9D9"/>
</mask>
<g mask="url(#mask0_89_2014)">
<path d="M9.10417 15.5625L8.125 14.6875C6.63889 13.3403 5.32972 12.0311 4.1975 10.76C3.06583 9.48946 2.5 8.16669 2.5 6.79169C2.5 5.73613 2.86111 4.84724 3.58333 4.12502C4.30556 3.4028 5.19444 3.04169 6.25 3.04169C6.86111 3.04169 7.49667 3.19446 8.15667 3.50002C8.81611 3.80558 9.43056 4.38891 10 5.25002C10.5694 4.38891 11.1842 3.80558 11.8442 3.50002C12.5036 3.19446 13.1389 3.04169 13.75 3.04169C14.8056 3.04169 15.6944 3.4028 16.4167 4.12502C17.1389 4.84724 17.5 5.73613 17.5 6.79169C17.5 8.19446 16.9097 9.54502 15.7292 10.8434C14.5486 12.1422 13.2569 13.4236 11.8542 14.6875L10.8958 15.5625C10.6458 15.7847 10.3472 15.8992 10 15.9059C9.65278 15.9131 9.35417 15.7986 9.10417 15.5625ZM9.58333 6.10419C9.09722 5.29863 8.58333 4.72558 8.04167 4.38502C7.5 4.04502 6.90278 3.87502 6.25 3.87502C5.41667 3.87502 4.72222 4.1528 4.16667 4.70835C3.61111 5.26391 3.33333 5.95835 3.33333 6.79169C3.33333 7.4028 3.50694 8.03113 3.85417 8.67669C4.20139 9.3228 4.67 9.98613 5.26 10.6667C5.85056 11.3472 6.52444 12.0417 7.28167 12.75C8.03833 13.4584 8.83333 14.1875 9.66667 14.9375C9.76389 15.0347 9.875 15.0834 10 15.0834C10.125 15.0834 10.2361 15.0347 10.3333 14.9375C11.1667 14.1875 11.9617 13.4584 12.7183 12.75C13.4756 12.0417 14.1494 11.3472 14.74 10.6667C15.33 9.98613 15.7986 9.3228 16.1458 8.67669C16.4931 8.03113 16.6667 7.4028 16.6667 6.79169C16.6667 5.95835 16.3889 5.26391 15.8333 4.70835C15.2778 4.1528 14.5833 3.87502 13.75 3.87502C13.0972 3.87502 12.5 4.04502 11.9583 4.38502C11.4167 4.72558 10.9028 5.29863 10.4167 6.10419C10.3611 6.17363 10.2986 6.22919 10.2292 6.27085C10.1597 6.31252 10.0833 6.33335 10 6.33335C9.91667 6.33335 9.84028 6.31252 9.77083 6.27085C9.70139 6.22919 9.63889 6.17363 9.58333 6.10419Z" fill="#666666"/>
</g>
</svg>
