<svg width="24" height="24" viewBox="0 0 24 24" fill="none" xmlns="http://www.w3.org/2000/svg">
<mask id="mask0_1384_1364" style="mask-type:alpha" maskUnits="userSpaceOnUse" x="0" y="0" width="24" height="24">
<rect width="24" height="24" fill="#D9D9D9"/>
</mask>
<g mask="url(#mask0_1384_1364)">
<path d="M5.15942 19.8406H9.44928V13.029H14.7826V19.8406H19.0725V9.4058L12.1159 4.13043L5.15942 9.4058V19.8406ZM5.15942 21C4.85024 21 4.57971 20.8841 4.34783 20.6522C4.11594 20.4203 4 20.1498 4 19.8406V9.4058C4 9.23188 4.03865 9.06261 4.11594 8.89797C4.19324 8.73411 4.30918 8.5942 4.46377 8.47826L11.4203 3.23188C11.5169 3.15459 11.6232 3.09662 11.7391 3.05797C11.8551 3.01932 11.9807 3 12.1159 3C12.2512 3 12.3768 3.01932 12.4928 3.05797C12.6087 3.09662 12.715 3.15459 12.8116 3.23188L19.7681 8.47826C19.9227 8.5942 20.0386 8.73411 20.1159 8.89797C20.1932 9.06261 20.2319 9.23188 20.2319 9.4058V19.8406C20.2319 20.1498 20.1159 20.4203 19.8841 20.6522C19.6522 20.8841 19.3816 21 19.0725 21H13.6232V14.1884H10.6087V21H5.15942Z" fill="#D71B5B"/>
</g>
</svg>
