<svg width="12" height="12" viewBox="0 0 12 12" fill="none" xmlns="http://www.w3.org/2000/svg">
<mask id="mask0_232_2716" style="mask-type:alpha" maskUnits="userSpaceOnUse" x="0" y="0" width="12" height="12">
<rect x="12" y="12" width="12" height="12" transform="rotate(-180 12 12)" fill="#D9D9D9"/>
</mask>
<g mask="url(#mask0_232_2716)">
<path d="M6 5.425C5.925 5.425 5.8645 5.448 5.8185 5.494C5.77283 5.53967 5.75 5.6 5.75 5.675L5.75 8.1875C5.75 8.25417 5.775 8.3105 5.825 8.3565C5.875 8.40217 5.93333 8.425 6 8.425C6.075 8.425 6.1355 8.4 6.1815 8.35C6.22717 8.3 6.25 8.24167 6.25 8.175L6.25 5.6625C6.25 5.59583 6.225 5.53967 6.175 5.494C6.125 5.448 6.06667 5.425 6 5.425ZM6 3.775C5.91667 3.775 5.84367 3.80417 5.781 3.8625C5.71867 3.92083 5.6875 3.99167 5.6875 4.075C5.6875 4.16667 5.71867 4.24167 5.781 4.3C5.84367 4.35833 5.91667 4.3875 6 4.3875C6.08333 4.3875 6.15633 4.35833 6.219 4.3C6.28133 4.24167 6.3125 4.16667 6.3125 4.075C6.3125 3.99167 6.28133 3.92083 6.219 3.8625C6.15633 3.80417 6.08333 3.775 6 3.775ZM6 1.5C6.625 1.5 7.2125 1.61667 7.7625 1.85C8.3125 2.08333 8.7895 2.402 9.1935 2.806C9.59783 3.21033 9.91667 3.6875 10.15 4.2375C10.3833 4.7875 10.5 5.375 10.5 6C10.5 6.625 10.3833 7.2125 10.15 7.7625C9.91667 8.3125 9.59783 8.78967 9.1935 9.194C8.7895 9.598 8.3125 9.91667 7.7625 10.15C7.2125 10.3833 6.625 10.5 6 10.5C5.375 10.5 4.7875 10.3833 4.2375 10.15C3.6875 9.91667 3.21033 9.598 2.806 9.194C2.402 8.78967 2.08333 8.3125 1.85 7.7625C1.61667 7.2125 1.5 6.625 1.5 6C1.5 5.375 1.61667 4.7875 1.85 4.2375C2.08333 3.6875 2.402 3.21033 2.806 2.806C3.21033 2.402 3.6875 2.08333 4.2375 1.85C4.7875 1.61667 5.375 1.5 6 1.5ZM6 2C4.89167 2 3.94783 2.3895 3.1685 3.1685C2.3895 3.94783 2 4.89167 2 6C2 7.10833 2.3895 8.05217 3.1685 8.8315C3.94783 9.6105 4.89167 10 6 10C7.10833 10 8.052 9.6105 8.831 8.8315C9.61033 8.05217 10 7.10833 10 6C10 4.89167 9.61033 3.94783 8.831 3.1685C8.052 2.3895 7.10833 2 6 2Z" fill="#666666"/>
</g>
</svg>
