<svg width="20" height="20" viewBox="0 0 20 20" fill="none" xmlns="http://www.w3.org/2000/svg">
<g clip-path="url(#clip0_3730_2697)">
<path opacity="0.4" d="M7.625 16H12.375C12.4571 16 12.5383 16.0162 12.6142 16.0476C12.69 16.079 12.7589 16.125 12.8169 16.1831C12.875 16.2411 12.921 16.31 12.9524 16.3858C12.9838 16.4617 13 16.5429 13 16.625V17.375C13 17.4571 12.9838 17.5383 12.9524 17.6142C12.921 17.69 12.875 17.7589 12.8169 17.8169C12.7589 17.875 12.69 17.921 12.6142 17.9524C12.5383 17.9838 12.4571 18 12.375 18H7.625C7.45924 18 7.30027 17.9342 7.18306 17.8169C7.06585 17.6997 7 17.5408 7 17.375V16.625C7 16.4592 7.06585 16.3003 7.18306 16.1831C7.30027 16.0658 7.45924 16 7.625 16Z" fill="#E3F2FC"/>
<path d="M10 6C10.3956 6 10.7822 5.8827 11.1111 5.66294C11.44 5.44318 11.6964 5.13082 11.8478 4.76537C11.9991 4.39992 12.0387 3.99778 11.9616 3.60982C11.8844 3.22186 11.6939 2.86549 11.4142 2.58579C11.1345 2.30608 10.7781 2.1156 10.3902 2.03843C10.0022 1.96126 9.60009 2.00087 9.23463 2.15224C8.86918 2.30362 8.55682 2.55996 8.33706 2.88886C8.1173 3.21776 8 3.60444 8 4C8 4.53043 8.21071 5.03914 8.58579 5.41421C8.96086 5.78929 9.46957 6 10 6ZM10.875 8H7.625C7.45924 8 7.30027 8.06585 7.18306 8.18306C7.06585 8.30027 7 8.45924 7 8.625V9.375C7 9.54076 7.06585 9.69973 7.18306 9.81694C7.30027 9.93415 7.45924 10 7.625 10H8.5V16H11.5V8.625C11.5 8.45924 11.4342 8.30027 11.3169 8.18306C11.1997 8.06585 11.0408 8 10.875 8Z" fill="#E3F2FC"/>
</g>
<defs>
<clipPath id="clip0_3730_2697">
<rect width="6" height="16" fill="white" transform="translate(7 2)"/>
</clipPath>
</defs>
</svg>
