<svg width="20" height="20" viewBox="0 0 20 20" fill="none" xmlns="http://www.w3.org/2000/svg">
<mask id="mask0_813_2372" style="mask-type:alpha" maskUnits="userSpaceOnUse" x="0" y="0" width="20" height="20">
<rect width="20" height="20" fill="#D9D9D9"/>
</mask>
<g mask="url(#mask0_813_2372)">
<path d="M10 9.58325C10.3472 9.58325 10.6422 9.46159 10.885 9.21825C11.1283 8.97547 11.25 8.68047 11.25 8.33325C11.25 7.98603 11.1283 7.69103 10.885 7.44825C10.6422 7.20492 10.3472 7.08325 10 7.08325C9.65278 7.08325 9.35778 7.20492 9.115 7.44825C8.87167 7.69103 8.75 7.98603 8.75 8.33325C8.75 8.68047 8.87167 8.97547 9.115 9.21825C9.35778 9.46159 9.65278 9.58325 10 9.58325ZM10 16.8749C11.7361 15.361 13.0728 13.8471 14.01 12.3333C14.9478 10.8194 15.4167 9.54158 15.4167 8.49992C15.4167 6.86103 14.8925 5.52075 13.8442 4.47909C12.7953 3.43742 11.5139 2.91659 10 2.91659C8.48611 2.91659 7.205 3.43742 6.15667 4.47909C5.10778 5.52075 4.58333 6.86103 4.58333 8.49992C4.58333 9.54158 5.05222 10.8194 5.99 12.3333C6.92722 13.8471 8.26389 15.361 10 16.8749ZM10 17.7499C9.91667 17.7499 9.83333 17.736 9.75 17.7083C9.66667 17.6805 9.59028 17.6388 9.52083 17.5833C7.57639 15.8055 6.12861 14.1527 5.1775 12.6249C4.22583 11.0971 3.75 9.72214 3.75 8.49992C3.75 6.54158 4.37861 4.9827 5.63583 3.82325C6.8925 2.66325 8.34722 2.08325 10 2.08325C11.6528 2.08325 13.1078 2.66325 14.365 3.82325C15.6217 4.9827 16.25 6.54158 16.25 8.49992C16.25 9.72214 15.7744 11.0971 14.8233 12.6249C13.8717 14.1527 12.4236 15.8055 10.4792 17.5833C10.4236 17.6388 10.3506 17.6805 10.26 17.7083C10.17 17.736 10.0833 17.7499 10 17.7499Z" fill="#D71B5B"/>
</g>
</svg>
