<svg width="24" height="24" viewBox="0 0 24 24" fill="none" xmlns="http://www.w3.org/2000/svg">
<mask id="mask0_1386_1448" style="mask-type:alpha" maskUnits="userSpaceOnUse" x="0" y="0" width="24" height="24">
<rect width="24" height="24" fill="#D9D9D9"/>
</mask>
<g mask="url(#mask0_1386_1448)">
<path d="M12 18.55C11.7167 18.55 11.4793 18.45 11.288 18.25C11.096 18.05 11 17.8166 11 17.55C11 17.2666 11.096 17.029 11.288 16.837C11.4793 16.6456 11.7167 16.55 12 16.55C12.2833 16.55 12.521 16.6456 12.713 16.837C12.9043 17.029 13 17.2666 13 17.55C13 17.8166 12.9043 18.05 12.713 18.25C12.521 18.45 12.2833 18.55 12 18.55ZM12 13C11.7167 13 11.4793 12.904 11.288 12.712C11.096 12.5206 11 12.2833 11 12C11 11.7166 11.096 11.479 11.288 11.287C11.4793 11.0956 11.7167 11 12 11C12.2833 11 12.521 11.0956 12.713 11.287C12.9043 11.479 13 11.7166 13 12C13 12.2833 12.9043 12.5206 12.713 12.712C12.521 12.904 12.2833 13 12 13ZM12 7.44995C11.7167 7.44995 11.4793 7.35395 11.288 7.16195C11.096 6.97062 11 6.73328 11 6.44995C11 6.18328 11.096 5.94995 11.288 5.74995C11.4793 5.54995 11.7167 5.44995 12 5.44995C12.2833 5.44995 12.521 5.54995 12.713 5.74995C12.9043 5.94995 13 6.18328 13 6.44995C13 6.73328 12.9043 6.97062 12.713 7.16195C12.521 7.35395 12.2833 7.44995 12 7.44995Z" fill="#808080"/>
</g>
</svg>
