<svg width="121" height="120" viewBox="0 0 121 120" fill="none" xmlns="http://www.w3.org/2000/svg">
<mask id="mask0_863_790" style="mask-type:alpha" maskUnits="userSpaceOnUse" x="0" y="0" width="121" height="120">
<rect x="0.5" width="120" height="120" fill="url(#paint0_linear_863_790)"/>
</mask>
<g mask="url(#mask0_863_790)">
<path d="M35.5 65C36.9167 65 38.105 64.52 39.065 63.56C40.0217 62.6033 40.5 61.4167 40.5 60C40.5 58.5833 40.0217 57.395 39.065 56.435C38.105 55.4783 36.9167 55 35.5 55C34.0833 55 32.895 55.4783 31.935 56.435C30.9783 57.395 30.5 58.5833 30.5 60C30.5 61.4167 30.9783 62.6033 31.935 63.56C32.895 64.52 34.0833 65 35.5 65ZM60.5 65C61.9167 65 63.105 64.52 64.065 63.56C65.0217 62.6033 65.5 61.4167 65.5 60C65.5 58.5833 65.0217 57.395 64.065 56.435C63.105 55.4783 61.9167 55 60.5 55C59.0833 55 57.8967 55.4783 56.94 56.435C55.98 57.395 55.5 58.5833 55.5 60C55.5 61.4167 55.98 62.6033 56.94 63.56C57.8967 64.52 59.0833 65 60.5 65ZM85.5 65C86.9167 65 88.1033 64.52 89.06 63.56C90.02 62.6033 90.5 61.4167 90.5 60C90.5 58.5833 90.02 57.395 89.06 56.435C88.1033 55.4783 86.9167 55 85.5 55C84.0833 55 82.8967 55.4783 81.94 56.435C80.98 57.395 80.5 58.5833 80.5 60C80.5 61.4167 80.98 62.6033 81.94 63.56C82.8967 64.52 84.0833 65 85.5 65ZM60.5 105C54.25 105 48.3967 103.813 42.94 101.44C37.48 99.0633 32.73 95.8533 28.69 91.81C24.6467 87.77 21.4367 83.02 19.06 77.56C16.6867 72.1033 15.5 66.25 15.5 60C15.5 53.75 16.6867 47.895 19.06 42.435C21.4367 36.9783 24.6467 32.2283 28.69 28.185C32.73 24.145 37.48 20.9367 42.94 18.56C48.3967 16.1867 54.25 15 60.5 15C66.75 15 72.605 16.1867 78.065 18.56C83.5217 20.9367 88.2717 24.145 92.315 28.185C96.355 32.2283 99.5633 36.9783 101.94 42.435C104.313 47.895 105.5 53.75 105.5 60C105.5 66.25 104.313 72.1033 101.94 77.56C99.5633 83.02 96.355 87.77 92.315 91.81C88.2717 95.8533 83.5217 99.0633 78.065 101.44C72.605 103.813 66.75 105 60.5 105ZM60.5 100C71.6667 100 81.125 96.125 88.875 88.375C96.625 80.625 100.5 71.1667 100.5 60C100.5 48.8333 96.625 39.375 88.875 31.625C81.125 23.875 71.6667 20 60.5 20C49.3333 20 39.875 23.875 32.125 31.625C24.375 39.375 20.5 48.8333 20.5 60C20.5 71.1667 24.375 80.625 32.125 88.375C39.875 96.125 49.3333 100 60.5 100Z" fill="url(#paint1_linear_863_790)"/>
</g>
<defs>
<linearGradient id="paint0_linear_863_790" x1="-11.3147" y1="24.556" x2="120.5" y2="59.7683" gradientUnits="userSpaceOnUse">
<stop stop-color="#FBB03C"/>
<stop offset="1" stop-color="#D71B5B"/>
</linearGradient>
<linearGradient id="paint1_linear_863_790" x1="6.639" y1="33.417" x2="105.5" y2="59.8263" gradientUnits="userSpaceOnUse">
<stop stop-color="#FBB03C"/>
<stop offset="1" stop-color="#D71B5B"/>
</linearGradient>
</defs>
</svg>
