<svg width="20" height="20" viewBox="0 0 20 20" fill="none" xmlns="http://www.w3.org/2000/svg">
<mask id="mask0_232_4350" style="mask-type:alpha" maskUnits="userSpaceOnUse" x="0" y="0" width="20" height="20">
<rect width="20" height="20" fill="#D9D9D9"/>
</mask>
<g mask="url(#mask0_232_4350)">
<path d="M10 17.5C8.95833 17.5 7.98278 17.3022 7.07333 16.9067C6.16333 16.5106 5.37167 15.9756 4.69833 15.3017C4.02444 14.6283 3.48944 13.8367 3.09333 12.9267C2.69778 12.0172 2.5 11.0417 2.5 10C2.5 8.95833 2.69778 7.9825 3.09333 7.0725C3.48944 6.16306 4.02444 5.37139 4.69833 4.6975C5.37167 4.02417 6.16333 3.48944 7.07333 3.09333C7.98278 2.69778 8.95833 2.5 10 2.5C11.0417 2.5 12.0175 2.69778 12.9275 3.09333C13.8369 3.48944 14.6286 4.02417 15.3025 4.6975C15.9758 5.37139 16.5106 6.16306 16.9067 7.0725C17.3022 7.9825 17.5 8.95833 17.5 10C17.5 11.0417 17.3022 12.0172 16.9067 12.9267C16.5106 13.8367 15.9758 14.6283 15.3025 15.3017C14.6286 15.9756 13.8369 16.5106 12.9275 16.9067C12.0175 17.3022 11.0417 17.5 10 17.5ZM10 16.6667C11.8611 16.6667 13.4375 16.0208 14.7292 14.7292C16.0208 13.4375 16.6667 11.8611 16.6667 10C16.6667 8.13889 16.0208 6.5625 14.7292 5.27083C13.4375 3.97917 11.8611 3.33333 10 3.33333C8.13889 3.33333 6.5625 3.97917 5.27083 5.27083C3.97917 6.5625 3.33333 8.13889 3.33333 10C3.33333 11.8611 3.97917 13.4375 5.27083 14.7292C6.5625 16.0208 8.13889 16.6667 10 16.6667Z" fill="#808080"/>
</g>
</svg>
