<svg width="40" height="40" viewBox="0 0 40 40" fill="none" xmlns="http://www.w3.org/2000/svg">
<mask id="mask0_1353_829" style="mask-type:alpha" maskUnits="userSpaceOnUse" x="0" y="0" width="40" height="40">
<rect width="40" height="40" fill="#D9D9D9"/>
</mask>
<g mask="url(#mask0_1353_829)">
<path d="M12.4759 32.142L19.7974 26.4984L27.1189 32.142L24.3733 22.8376L31.2372 17.9566H22.6955L19.7974 8.49967L16.8993 17.9566H8.35754L15.2214 22.8376L12.4759 32.142ZM19.7974 29.2439L11.1794 35.8028C10.9252 35.9553 10.6841 36.0194 10.4564 35.995C10.2266 35.9685 10.01 35.9044 9.80659 35.8028C9.60321 35.7011 9.45068 35.5363 9.34899 35.3086C9.24731 35.0787 9.24731 34.8367 9.34899 34.5825L12.6284 23.7528L4.54426 17.8803C4.29004 17.7278 4.12531 17.5366 4.05006 17.3068C3.97278 17.079 3.98498 16.838 4.08667 16.5838C4.18835 16.3296 4.32868 16.1384 4.50765 16.0103C4.68459 15.8842 4.90017 15.8212 5.15438 15.8212H15.374L18.7297 4.83892C18.8314 4.5847 18.9717 4.38133 19.1507 4.2288C19.3276 4.07627 19.5432 4 19.7974 4C20.0516 4 20.2682 4.07627 20.4472 4.2288C20.6241 4.38133 20.7634 4.5847 20.8651 4.83892L24.2208 15.8212H34.4404C34.6946 15.8212 34.9112 15.8842 35.0902 16.0103C35.2671 16.1384 35.4064 16.3296 35.5081 16.5838C35.6098 16.838 35.623 17.079 35.5478 17.3068C35.4705 17.5366 35.3047 17.7278 35.0505 17.8803L26.9664 23.7528L30.2458 34.5825C30.3475 34.8367 30.3475 35.0787 30.2458 35.3086C30.1441 35.5363 29.9916 35.7011 29.7882 35.8028C29.5848 35.9044 29.3682 35.9685 29.1384 35.995C28.9106 36.0194 28.6696 35.9553 28.4154 35.8028L19.7974 29.2439Z" fill="#8C8D91"/>
</g>
</svg>
