<svg width="121" height="120" viewBox="0 0 121 120" fill="none" xmlns="http://www.w3.org/2000/svg">
<mask id="mask0_813_1647" style="mask-type:alpha" maskUnits="userSpaceOnUse" x="0" y="0" width="121" height="120">
<rect x="0.5" width="120" height="120" fill="#D9D9D9"/>
</mask>
<g mask="url(#mask0_813_1647)">
<path d="M104 48.5C104.5 50.3333 104.875 52.2083 105.125 54.125C105.375 56.0417 105.5 58 105.5 60C105.5 66.25 104.313 72.1033 101.94 77.56C99.5633 83.02 96.355 87.77 92.315 91.81C88.2717 95.8533 83.5217 99.0633 78.065 101.44C72.605 103.813 66.75 105 60.5 105C54.25 105 48.3967 103.813 42.94 101.44C37.48 99.0633 32.73 95.8533 28.69 91.81C24.6467 87.77 21.4367 83.02 19.06 77.56C16.6867 72.1033 15.5 66.25 15.5 60C15.5 53.75 16.6867 47.895 19.06 42.435C21.4367 36.9783 24.6467 32.2283 28.69 28.185C32.73 24.145 37.48 20.9367 42.94 18.56C48.3967 16.1867 54.25 15 60.5 15C65.1667 15 69.5617 15.645 73.685 16.935C77.8117 18.2283 81.625 20.0417 85.125 22.375C85.7917 22.7917 86.1883 23.3333 86.315 24C86.4383 24.6667 86.2083 25.2917 85.625 25.875C85.2083 26.4583 84.6467 26.7917 83.94 26.875C83.23 26.9583 82.5417 26.7917 81.875 26.375C78.875 24.2917 75.5633 22.7083 71.94 21.625C68.3133 20.5417 64.5 20 60.5 20C49.4167 20 39.98 23.895 32.19 31.685C24.3967 39.4783 20.5 48.9167 20.5 60C20.5 71.0833 24.3967 80.5217 32.19 88.315C39.98 96.105 49.4167 100 60.5 100C71.5833 100 81.0217 96.105 88.815 88.315C96.605 80.5217 100.5 71.0833 100.5 60C100.5 58.25 100.375 56.5 100.125 54.75C99.875 53 99.5 51.2917 99 49.625C98.9167 49.2083 98.98 48.75 99.19 48.25C99.3967 47.75 99.6667 47.375 100 47.125C100.75 46.4583 101.542 46.27 102.375 46.56C103.208 46.8533 103.75 47.5 104 48.5ZM50.5 76.75L37.125 63.375C36.7083 62.9583 36.5217 62.395 36.565 61.685C36.605 60.9783 36.8333 60.4167 37.25 60C37.8333 59.4167 38.4383 59.125 39.065 59.125C39.6883 59.125 40.2917 59.4167 40.875 60L53.25 72.5L100.375 25.375C100.792 24.9583 101.333 24.77 102 24.81C102.667 24.8533 103.25 25.0833 103.75 25.5C104.25 26.0833 104.5 26.6867 104.5 27.31C104.5 27.9367 104.25 28.5417 103.75 29.125L56.125 76.75C55.375 77.5 54.4367 77.875 53.31 77.875C52.1867 77.875 51.25 77.5 50.5 76.75Z" fill="url(#paint0_linear_813_1647)"/>
</g>
<defs>
<linearGradient id="paint0_linear_813_1647" x1="6.639" y1="33.417" x2="105.5" y2="59.8263" gradientUnits="userSpaceOnUse">
<stop stop-color="#FBB03C"/>
<stop offset="1" stop-color="#D71B5B"/>
</linearGradient>
</defs>
</svg>
