<svg width="20" height="20" viewBox="0 0 20 20" fill="none" xmlns="http://www.w3.org/2000/svg">
<mask id="mask0_89_2063" style="mask-type:alpha" maskUnits="userSpaceOnUse" x="0" y="0" width="20" height="20">
<rect width="20" height="20" fill="#D9D9D9"/>
</mask>
<g mask="url(#mask0_89_2063)">
<path d="M8.91661 11.0417L4.47911 9.25004C4.36799 9.20838 4.28105 9.13893 4.21827 9.04171C4.15605 8.94449 4.12494 8.84032 4.12494 8.72921C4.12494 8.6181 4.15605 8.51393 4.21827 8.41671C4.28105 8.31949 4.37494 8.2431 4.49994 8.18754L15.0416 4.22921C15.1527 4.18754 15.2569 4.1806 15.3541 4.20838C15.4513 4.23616 15.5416 4.28477 15.6249 4.35421C15.7083 4.43754 15.7605 4.52782 15.7816 4.62504C15.8022 4.72227 15.7916 4.82643 15.7499 4.93754L11.7291 15.4584C11.6736 15.5834 11.6005 15.6737 11.5099 15.7292C11.4199 15.7848 11.3194 15.8125 11.2083 15.8125C11.0972 15.8125 10.9966 15.7848 10.9066 15.7292C10.8161 15.6737 10.743 15.5834 10.6874 15.4584L8.91661 11.0417ZM11.1874 14.4792L14.7708 5.20838L5.45827 8.75004L9.54161 10.3959L11.1874 14.4792Z" fill="#666666"/>
</g>
</svg>
