<svg width="24" height="24" viewBox="0 0 24 24" fill="none" xmlns="http://www.w3.org/2000/svg">
<mask id="mask0_1384_1370" style="mask-type:alpha" maskUnits="userSpaceOnUse" x="0" y="0" width="24" height="24">
<rect width="24" height="24" fill="#D9D9D9"/>
</mask>
<g mask="url(#mask0_1384_1370)">
<path d="M4.625 20C4.15833 20 3.771 19.846 3.463 19.538C3.15433 19.2293 3 18.8417 3 18.375V8.625C3 8.15833 3.15433 7.771 3.463 7.463C3.771 7.15433 4.15833 7 4.625 7H9V5.625C9 5.15833 9.15433 4.771 9.463 4.463C9.771 4.15433 10.1583 4 10.625 4H13.375C13.8417 4 14.2293 4.15433 14.538 4.463C14.846 4.771 15 5.15833 15 5.625V7H19.375C19.8417 7 20.2293 7.15433 20.538 7.463C20.846 7.771 21 8.15833 21 8.625V18.375C21 18.8417 20.846 19.2293 20.538 19.538C20.2293 19.846 19.8417 20 19.375 20H4.625ZM4.625 19H19.375C19.5417 19 19.6873 18.9373 19.812 18.812C19.9373 18.6873 20 18.5417 20 18.375V8.625C20 8.45833 19.9373 8.31267 19.812 8.188C19.6873 8.06267 19.5417 8 19.375 8H4.625C4.45833 8 4.31267 8.06267 4.188 8.188C4.06267 8.31267 4 8.45833 4 8.625V18.375C4 18.5417 4.06267 18.6873 4.188 18.812C4.31267 18.9373 4.45833 19 4.625 19ZM10 7H14V5.625C14 5.45833 13.9373 5.31267 13.812 5.188C13.6873 5.06267 13.5417 5 13.375 5H10.625C10.4583 5 10.3127 5.06267 10.188 5.188C10.0627 5.31267 10 5.45833 10 5.625V7Z" fill="#D71B5B"/>
</g>
</svg>
